<?xml version="1.0" encoding="UTF-8" standalone="no"?>
<!DOCTYPE svg PUBLIC "-//W3C//DTD SVG 1.1//EN" "http://www.w3.org/Graphics/SVG/1.1/DTD/svg11.dtd">
<!-- Created with Vectornator (http://vectornator.io/) -->
<svg height="100%" stroke-miterlimit="10" style="fill-rule:nonzero;clip-rule:evenodd;stroke-linecap:round;stroke-linejoin:round;" version="1.1" viewBox="0 0 517.56 461.02" width="100%" xml:space="preserve" xmlns="http://www.w3.org/2000/svg" xmlns:vectornator="http://vectornator.io" xmlns:xlink="http://www.w3.org/1999/xlink">
<defs>
<path d="M874.484 985.687L980.925 985.687L980.925 1413.6L874.484 1413.6L874.484 985.687Z" id="Fill"/>
<path d="M521.831-32.4915L531.508-32.4915L531.508-28.1909L521.831-28.1909L521.831-32.4915Z" id="Fill_2"/>
</defs>
<clipPath id="ArtboardFrame">
<rect height="461.02" width="517.56" x="0" y="0"/>
</clipPath>
<g clip-path="url(#ArtboardFrame)" id="Untitled" vectornator:layerName="Untitled" visibility="hidden">
<g opacity="1">
<clipPath id="ClipPath">
<path d="M0-3.90625e-06L2257.81-3.90625e-06L2257.81 461.021L0 461.021L0-3.90625e-06Z"/>
</clipPath>
<g clip-path="url(#ClipPath)">
<path d="M677.77 194.007C674.531 195.084 665.586 196.629 654.785 196.629C631.339 196.629 609.126 184.289 609.126 147.569L609.126 128.135C609.126 91.4207 631.339 79.2317 654.785 79.2317C665.586 79.2317 674.531 80.7767 677.77 81.8537C679.932 82.4707 681.165 83.0867 681.165 85.2477L681.165 100.211C681.165 102.067 680.243 103.3 678.237 103.3L677.77 103.3C671.909 102.833 663.425 102.067 654.941 102.067C644.295 102.067 635.812 107.617 635.812 128.135L635.812 147.569C635.812 168.088 644.295 173.644 654.941 173.644C663.425 173.644 671.909 172.872 677.77 172.41L678.237 172.41C680.243 172.41 681.165 173.644 681.165 175.494L681.165 190.456C681.165 192.617 679.932 193.39 677.77 194.007" fill="#000000" fill-rule="nonzero" opacity="1" stroke="none" vectornator:layerName="path"/>
<path d="M744.277 103.449C743.972 101.911 743.66 101.138 742.271 101.138C740.888 101.138 740.421 101.911 740.116 103.449L730.704 146.031L753.689 146.031L744.277 103.449ZM788.247 195.24L766.645 195.24C765.107 195.24 763.873 194.007 763.562 192.462L758.012 167.166L726.387 167.166L720.831 192.462C720.526 194.007 719.286 195.24 717.748 195.24L696.152 195.24C694.607 195.24 693.529 194.311 693.529 192.773C693.529 192.617 693.679 192.306 693.679 192.001L716.664 96.3541C720.215 81.5491 731.632 79.2311 742.271 79.2311C752.917 79.2311 764.178 81.5491 767.729 96.3541L790.714 192.001C790.714 192.306 790.87 192.617 790.87 192.773C790.87 194.311 789.786 195.24 788.247 195.24" fill="#000000" fill-rule="nonzero" opacity="1" stroke="none" vectornator:layerName="path"/>
<path d="M866.177 115.328C866.177 105.923 858.927 101.599 845.964 101.599C843.809 101.599 835.786 101.911 833.936 102.066L833.936 131.685C835.63 131.835 843.192 131.991 844.886 131.991C861.088 131.991 866.177 127.823 866.177 117.334L866.177 115.328ZM893.946 195.24L870.338 195.24C868.644 195.24 868.027 193.695 867.255 192.156L846.587 153.126L844.886 153.281C841.647 153.281 836.864 152.97 833.936 152.97L833.936 192.156C833.936 193.85 832.547 195.24 830.846 195.24L810.795 195.24C809.095 195.24 807.712 193.85 807.712 192.156L807.712 88.643C807.712 83.398 809.867 82.01 814.651 81.237C821.746 80.159 834.858 79.231 845.964 79.231C872.194 79.231 892.401 88.026 892.401 115.328L892.401 117.334C892.401 133.691 883.761 143.714 872.5 148.186L895.796 191.689C896.101 192.307 896.257 192.929 896.257 193.39C896.257 194.468 895.64 195.24 893.946 195.24" fill="#000000" fill-rule="nonzero" opacity="1" stroke="none" vectornator:layerName="path"/>
<path d="M974.959 194.623C969.87 195.701 957.991 196.629 949.813 196.629C929.917 196.629 912.177 191.54 912.177 163.46L912.177 83.704C912.177 82.01 913.56 80.62 915.26 80.62L935.467 80.62C937.167 80.62 938.557 82.01 938.557 83.704L938.557 163.46C938.557 171.482 941.179 173.949 948.43 173.949L974.959 173.949C976.659 173.949 978.048 175.339 978.048 177.039L978.048 191.384C978.048 193.39 977.12 194.162 974.959 194.623" fill="#000000" fill-rule="nonzero" opacity="1" stroke="none" vectornator:layerName="path"/>
<path d="M1059.83 194.623C1054.43 195.395 1046.56 196.629 1029.9 196.629C1010 196.629 992.411 191.54 992.411 163.46L992.411 112.245C992.411 84.171 1010.15 79.231 1030.05 79.231C1046.72 79.231 1054.43 80.465 1059.83 81.237C1061.99 81.549 1062.91 82.32 1062.91 84.326L1062.91 98.672C1062.91 100.366 1061.52 101.755 1059.83 101.755L1028.51 101.755C1021.26 101.755 1018.64 104.222 1018.64 112.245L1018.64 126.285L1058.59 126.285C1060.29 126.285 1061.68 127.674 1061.68 129.368L1061.68 144.025C1061.68 145.72 1060.29 147.108 1058.59 147.108L1018.64 147.108L1018.64 163.46C1018.64 171.482 1021.26 173.949 1028.51 173.949L1059.83 173.949C1061.52 173.949 1062.91 175.339 1062.91 177.039L1062.91 191.384C1062.91 193.39 1061.99 194.311 1059.83 194.623" fill="#000000" fill-rule="nonzero" opacity="1" stroke="none" vectornator:layerName="path"/>
<path d="M1158.11 102.372L1133.12 102.372L1133.12 192.156C1133.12 193.851 1131.73 195.24 1130.03 195.24L1109.83 195.24C1108.13 195.24 1106.74 193.851 1106.74 192.156L1106.74 102.372L1081.59 102.372C1079.9 102.372 1078.51 101.139 1078.51 99.444L1078.51 83.554C1078.51 81.853 1079.9 80.62 1081.59 80.62L1158.11 80.62C1159.81 80.62 1161.35 81.853 1161.35 83.554L1161.35 99.444C1161.35 101.139 1159.81 102.372 1158.11 102.372" fill="#000000" fill-rule="nonzero" opacity="1" stroke="none" vectornator:layerName="path"/>
<path d="M1236.65 128.752C1236.65 110.239 1230.49 102.372 1217.53 102.372C1204.57 102.372 1198.55 110.239 1198.55 128.752L1198.55 147.108C1198.55 165.621 1204.57 173.488 1217.53 173.488C1230.49 173.488 1236.65 165.621 1236.65 147.108L1236.65 128.752ZM1217.53 196.629C1192.07 196.629 1171.87 182.9 1171.87 147.108L1171.87 128.752C1171.87 92.9599 1192.07 79.2309 1217.53 79.2309C1242.98 79.2309 1263.19 92.9599 1263.19 128.752L1263.19 147.108C1263.19 182.9 1242.98 196.629 1217.53 196.629" fill="#000000" fill-rule="nonzero" opacity="1" stroke="none" vectornator:layerName="path"/>
<path d="M1370.12 195.24L1355 195.24C1351.77 195.24 1349.45 194.623 1346.98 190.456L1311.81 129.679C1311.19 128.752 1310.88 128.44 1310.42 128.44C1309.96 128.44 1309.65 128.752 1309.65 129.679L1309.65 192.156C1309.65 193.85 1308.26 195.24 1306.56 195.24L1288.36 195.24C1286.66 195.24 1285.28 193.85 1285.28 192.156L1285.28 86.4811C1285.28 83.2431 1287.9 80.6201 1291.14 80.6201L1306.72 80.6201C1309.8 80.6201 1311.35 82.1651 1313.2 85.4041L1349.76 148.959C1350.38 149.886 1350.53 150.192 1350.99 150.192C1351.3 150.192 1351.77 149.886 1351.77 148.808L1351.77 83.5531C1351.77 81.8531 1353.15 80.6201 1354.85 80.6201L1373.05 80.6201C1374.75 80.6201 1376.14 81.8531 1376.14 83.5531L1376.14 189.379C1376.14 192.617 1373.36 195.24 1370.12 195.24" fill="#000000" fill-rule="nonzero" opacity="1" stroke="none" vectornator:layerName="path"/>
<path d="M1510.07 194.007C1506.83 195.084 1497.89 196.629 1487.09 196.629C1463.64 196.629 1441.43 184.289 1441.43 147.569L1441.43 128.135C1441.43 91.4207 1463.64 79.2317 1487.09 79.2317C1497.89 79.2317 1506.83 80.7767 1510.07 81.8537C1512.23 82.4707 1513.47 83.0867 1513.47 85.2477L1513.47 100.211C1513.47 102.067 1512.55 103.3 1510.54 103.3L1510.07 103.3C1504.21 102.833 1495.73 102.067 1487.24 102.067C1476.6 102.067 1468.12 107.617 1468.12 128.135L1468.12 147.569C1468.12 168.088 1476.6 173.644 1487.24 173.644C1495.73 173.644 1504.21 172.872 1510.07 172.41L1510.54 172.41C1512.55 172.41 1513.47 173.644 1513.47 175.494L1513.47 190.456C1513.47 192.617 1512.23 193.39 1510.07 194.007" fill="#000000" fill-rule="nonzero" opacity="1" stroke="none" vectornator:layerName="path"/>
<path d="M1592.63 128.752C1592.63 110.239 1586.46 102.372 1573.5 102.372C1560.54 102.372 1554.52 110.239 1554.52 128.752L1554.52 147.108C1554.52 165.621 1560.54 173.488 1573.5 173.488C1586.46 173.488 1592.63 165.621 1592.63 147.108L1592.63 128.752ZM1573.5 196.629C1548.04 196.629 1527.84 182.9 1527.84 147.108L1527.84 128.752C1527.84 92.9599 1548.04 79.2309 1573.5 79.2309C1598.95 79.2309 1619.16 92.9599 1619.16 128.752L1619.16 147.108C1619.16 182.9 1598.95 196.629 1573.5 196.629" fill="#000000" fill-rule="nonzero" opacity="1" stroke="none" vectornator:layerName="path"/>
<path d="M1742.9 195.24L1722.54 195.24C1721.15 195.24 1720.08 193.85 1720.08 192.156L1720.08 127.823C1720.08 126.746 1719.61 126.591 1719.3 126.591C1718.84 126.591 1718.53 126.901 1718.07 127.674L1704.19 153.126C1703.11 154.975 1701.56 155.748 1699.56 155.748L1687.22 155.748C1685.21 155.748 1683.67 154.975 1682.59 153.126L1668.71 127.674C1668.24 126.901 1667.93 126.591 1667.47 126.591C1667.16 126.591 1666.7 126.746 1666.7 127.823L1666.7 192.156C1666.7 193.85 1665.62 195.24 1664.23 195.24L1643.87 195.24C1642.63 195.24 1641.25 194.779 1641.25 193.078L1641.25 85.8651C1641.25 82.6261 1643.56 80.6201 1646.8 80.6201L1661.3 80.6201C1664.54 80.6201 1666.7 82.1651 1668.09 84.7871L1691.69 128.752C1692.31 129.985 1692.77 130.758 1693.38 130.758C1694 130.758 1694.47 129.985 1695.09 128.752L1718.69 84.7871C1720.08 82.1651 1722.24 80.6201 1725.48 80.6201L1739.98 80.6201C1743.22 80.6201 1745.53 82.7821 1745.53 86.0201L1745.53 193.078C1745.53 194.779 1744.14 195.24 1742.9 195.24" fill="#000000" fill-rule="nonzero" opacity="1" stroke="none" vectornator:layerName="path"/>
<path d="M1828.56 116.412C1828.56 105.455 1821.77 101.139 1808.81 101.139C1806.65 101.139 1798.17 101.45 1796.32 101.599L1796.32 133.068C1798.01 133.224 1807.12 133.38 1808.81 133.38C1822.54 133.38 1828.56 128.291 1828.56 117.801L1828.56 116.412ZM1808.81 155.132C1805.11 155.132 1800.17 154.82 1796.32 154.671L1796.32 192.156C1796.32 193.85 1794.93 195.24 1793.23 195.24L1773.33 195.24C1771.63 195.24 1770.25 194.007 1770.25 192.307L1770.25 88.643C1770.25 83.398 1772.4 82.01 1777.19 81.237C1785.05 80.004 1797.39 79.231 1808.5 79.231C1831.8 79.231 1854.78 87.41 1854.78 116.412L1854.78 117.801C1854.78 146.647 1831.8 155.132 1808.81 155.132" fill="#000000" fill-rule="nonzero" opacity="1" stroke="none" vectornator:layerName="path"/>
<path d="M1917.74 196.629C1893.21 196.629 1873.31 187.373 1873.31 152.197L1873.31 83.5538C1873.31 81.8538 1874.7 80.6198 1876.4 80.6198L1896.61 80.6198C1898.3 80.6198 1899.69 81.8538 1899.69 83.5538L1899.69 152.197C1899.69 167.933 1903.86 174.567 1917.74 174.567C1931.63 174.567 1935.95 167.933 1935.95 152.197L1935.95 83.5538C1935.95 81.8538 1937.33 80.6198 1939.03 80.6198L1959.09 80.6198C1960.78 80.6198 1962.33 81.8538 1962.33 83.5538L1962.33 152.197C1962.33 187.373 1942.27 196.629 1917.74 196.629" fill="#000000" fill-rule="nonzero" opacity="1" stroke="none" vectornator:layerName="path"/>
<path d="M2059.23 102.372L2034.24 102.372L2034.24 192.156C2034.24 193.851 2032.85 195.24 2031.16 195.24L2010.95 195.24C2009.25 195.24 2007.86 193.851 2007.86 192.156L2007.86 102.372L1982.72 102.372C1981.02 102.372 1979.63 101.139 1979.63 99.444L1979.63 83.554C1979.63 81.853 1981.02 80.62 1982.72 80.62L2059.23 80.62C2060.93 80.62 2062.47 81.853 2062.47 83.554L2062.47 99.444C2062.47 101.139 2060.93 102.372 2059.23 102.372" fill="#000000" fill-rule="nonzero" opacity="1" stroke="none" vectornator:layerName="path"/>
<path d="M2143.64 194.623C2138.24 195.395 2130.37 196.629 2113.71 196.629C2093.81 196.629 2076.22 191.54 2076.22 163.46L2076.22 112.245C2076.22 84.171 2093.96 79.231 2113.86 79.231C2130.52 79.231 2138.24 80.465 2143.64 81.237C2145.8 81.549 2146.72 82.32 2146.72 84.326L2146.72 98.672C2146.72 100.366 2145.33 101.755 2143.64 101.755L2112.32 101.755C2105.07 101.755 2102.44 104.222 2102.44 112.245L2102.44 126.285L2142.4 126.285C2144.1 126.285 2145.49 127.674 2145.49 129.368L2145.49 144.025C2145.49 145.72 2144.1 147.108 2142.4 147.108L2102.44 147.108L2102.44 163.46C2102.44 171.482 2105.07 173.949 2112.32 173.949L2143.64 173.949C2145.33 173.949 2146.72 175.339 2146.72 177.039L2146.72 191.384C2146.72 193.39 2145.8 194.311 2143.64 194.623" fill="#000000" fill-rule="nonzero" opacity="1" stroke="none" vectornator:layerName="path"/>
<path d="M2227.73 115.328C2227.73 105.923 2220.48 101.599 2207.52 101.599C2205.36 101.599 2197.34 101.911 2195.49 102.066L2195.49 131.685C2197.19 131.835 2204.75 131.991 2206.44 131.991C2222.64 131.991 2227.73 127.823 2227.73 117.334L2227.73 115.328ZM2255.5 195.24L2231.89 195.24C2230.2 195.24 2229.58 193.695 2228.81 192.156L2208.14 153.126L2206.44 153.281C2203.2 153.281 2198.42 152.97 2195.49 152.97L2195.49 192.156C2195.49 193.85 2194.1 195.24 2192.4 195.24L2172.35 195.24C2170.65 195.24 2169.27 193.85 2169.27 192.156L2169.27 88.643C2169.27 83.398 2171.42 82.01 2176.21 81.237C2183.3 80.159 2196.41 79.231 2207.52 79.231C2233.75 79.231 2253.96 88.026 2253.96 115.328L2253.96 117.334C2253.96 133.691 2245.32 143.714 2234.06 148.186L2257.35 191.689C2257.66 192.307 2257.81 192.929 2257.81 193.39C2257.81 194.468 2257.2 195.24 2255.5 195.24" fill="#000000" fill-rule="nonzero" opacity="1" stroke="none" vectornator:layerName="path"/>
<path d="M643.062 381.79C630.878 381.79 621.771 380.401 613.904 378.395C612.366 377.935 610.821 377.006 610.821 375.311L610.821 360.194C610.821 358.033 612.054 357.261 613.599 357.261L614.06 357.261C620.382 357.877 637.356 359.11 643.374 359.11C654.013 359.11 657.102 355.716 657.102 348.315C657.102 343.843 654.941 341.37 646.918 336.593L625.633 323.941C611.282 315.458 607.426 305.734 607.426 294.478C607.426 277.505 616.994 264.393 646.918 264.393C658.18 264.393 673.759 266.242 679.62 267.787C680.859 268.099 681.937 268.865 681.937 270.565L681.937 286.144C681.937 287.533 681.321 288.767 679.315 288.767L679.003 288.767C674.687 288.461 656.791 287.072 646.301 287.072C637.506 287.072 634.267 289.694 634.267 295.245C634.267 299.567 636.272 301.573 644.607 306.046L664.353 316.691C680.393 325.33 685.176 335.509 685.176 348.004C685.176 364.355 674.375 381.79 643.062 381.79" fill="#e30613" fill-rule="nonzero" opacity="1" stroke="none" vectornator:layerName="path"/>
<path d="M771.584 379.168C768.345 380.245 759.4 381.79 748.599 381.79C725.153 381.79 702.94 369.45 702.94 332.73L702.94 313.296C702.94 276.582 725.153 264.393 748.599 264.393C759.4 264.393 768.345 265.938 771.584 267.015C773.746 267.632 774.979 268.248 774.979 270.409L774.979 285.372C774.979 287.228 774.057 288.461 772.051 288.461L771.584 288.461C765.723 287.994 757.239 287.228 748.755 287.228C738.109 287.228 729.626 292.778 729.626 313.296L729.626 332.73C729.626 353.249 738.109 358.805 748.755 358.805C757.239 358.805 765.723 358.033 771.584 357.572L772.051 357.572C774.057 357.572 774.979 358.805 774.979 360.655L774.979 375.617C774.979 377.778 773.746 378.551 771.584 379.168" fill="#e30613" fill-rule="nonzero" opacity="1" stroke="none" vectornator:layerName="path"/>
<path d="M818.662 380.401L797.988 380.401C796.294 380.401 795.216 379.011 795.216 377.317L795.216 268.714C795.216 267.014 796.294 265.781 797.988 265.781L818.662 265.781C820.356 265.781 821.596 267.014 821.596 268.714L821.596 377.317C821.596 379.011 820.356 380.401 818.662 380.401" fill="#e30613" fill-rule="nonzero" opacity="1" stroke="none" vectornator:layerName="path"/>
<path d="M913.236 379.784C907.836 380.556 899.968 381.79 883.306 381.79C863.41 381.79 845.82 376.701 845.82 348.621L845.82 297.406C845.82 269.332 863.56 264.392 883.462 264.392C900.124 264.392 907.836 265.626 913.236 266.398C915.398 266.71 916.319 267.481 916.319 269.487L916.319 283.833C916.319 285.527 914.93 286.916 913.236 286.916L881.917 286.916C874.667 286.916 872.044 289.383 872.044 297.406L872.044 311.446L912.003 311.446C913.697 311.446 915.086 312.835 915.086 314.529L915.086 329.186C915.086 330.881 913.697 332.269 912.003 332.269L872.044 332.269L872.044 348.621C872.044 356.643 874.667 359.11 881.917 359.11L913.236 359.11C914.93 359.11 916.319 360.5 916.319 362.2L916.319 376.545C916.319 378.551 915.398 379.472 913.236 379.784" fill="#e30613" fill-rule="nonzero" opacity="1" stroke="none" vectornator:layerName="path"/>
<path d="M1023.71 380.401L1008.59 380.401C1005.36 380.401 1003.04 379.784 1000.57 375.617L965.398 314.84C964.781 313.913 964.475 313.601 964.008 313.601C963.547 313.601 963.242 313.913 963.242 314.84L963.242 377.317C963.242 379.011 961.853 380.401 960.152 380.401L941.951 380.401C940.251 380.401 938.868 379.011 938.868 377.317L938.868 271.642C938.868 268.404 941.49 265.781 944.73 265.781L960.308 265.781C963.392 265.781 964.936 267.326 966.786 270.565L1003.35 334.12C1003.97 335.047 1004.12 335.353 1004.58 335.353C1004.89 335.353 1005.36 335.047 1005.36 333.969L1005.36 268.714C1005.36 267.014 1006.74 265.781 1008.44 265.781L1026.64 265.781C1028.34 265.781 1029.73 267.014 1029.73 268.714L1029.73 374.54C1029.73 377.778 1026.95 380.401 1023.71 380.401" fill="#e30613" fill-rule="nonzero" opacity="1" stroke="none" vectornator:layerName="path"/>
<path d="M1120.46 379.168C1117.22 380.245 1108.28 381.79 1097.48 381.79C1074.03 381.79 1051.82 369.45 1051.82 332.73L1051.82 313.296C1051.82 276.582 1074.03 264.393 1097.48 264.393C1108.28 264.393 1117.22 265.938 1120.46 267.015C1122.62 267.632 1123.86 268.248 1123.86 270.409L1123.86 285.372C1123.86 287.228 1122.93 288.461 1120.93 288.461L1120.46 288.461C1114.6 287.994 1106.12 287.228 1097.63 287.228C1086.99 287.228 1078.5 292.778 1078.5 313.296L1078.5 332.73C1078.5 353.249 1086.99 358.805 1097.63 358.805C1106.12 358.805 1114.6 358.033 1120.46 357.572L1120.93 357.572C1122.93 357.572 1123.86 358.805 1123.86 360.655L1123.86 375.617C1123.86 377.778 1122.62 378.551 1120.46 379.168" fill="#e30613" fill-rule="nonzero" opacity="1" stroke="none" vectornator:layerName="path"/>
<path d="M1211.04 379.784C1205.64 380.556 1197.77 381.79 1181.1 381.79C1161.21 381.79 1143.62 376.701 1143.62 348.621L1143.62 297.406C1143.62 269.332 1161.36 264.392 1181.26 264.392C1197.92 264.392 1205.64 265.626 1211.04 266.398C1213.2 266.71 1214.12 267.481 1214.12 269.487L1214.12 283.833C1214.12 285.527 1212.73 286.916 1211.04 286.916L1179.72 286.916C1172.47 286.916 1169.84 289.383 1169.84 297.406L1169.84 311.446L1209.8 311.446C1211.5 311.446 1212.89 312.835 1212.89 314.529L1212.89 329.186C1212.89 330.881 1211.5 332.269 1209.8 332.269L1169.84 332.269L1169.84 348.621C1169.84 356.643 1172.47 359.11 1179.72 359.11L1211.04 359.11C1212.73 359.11 1214.12 360.5 1214.12 362.2L1214.12 376.545C1214.12 378.551 1213.2 379.472 1211.04 379.784" fill="#e30613" fill-rule="nonzero" opacity="1" stroke="none" vectornator:layerName="path"/>
<path d="M1311.18 381.79C1299 381.79 1289.89 380.401 1282.03 378.395C1280.49 377.935 1278.94 377.006 1278.94 375.311L1278.94 360.194C1278.94 358.033 1280.18 357.261 1281.72 357.261L1282.18 357.261C1288.5 357.877 1305.48 359.11 1311.5 359.11C1322.13 359.11 1325.22 355.716 1325.22 348.315C1325.22 343.843 1323.06 341.37 1315.04 336.593L1293.75 323.941C1279.4 315.458 1275.55 305.734 1275.55 294.478C1275.55 277.505 1285.12 264.393 1315.04 264.393C1326.3 264.393 1341.88 266.242 1347.74 267.787C1348.98 268.099 1350.06 268.865 1350.06 270.565L1350.06 286.144C1350.06 287.533 1349.44 288.767 1347.44 288.767L1347.12 288.767C1342.81 288.461 1324.91 287.072 1314.42 287.072C1305.63 287.072 1302.39 289.694 1302.39 295.245C1302.39 299.567 1304.39 301.573 1312.73 306.046L1332.47 316.691C1348.51 325.33 1353.3 335.509 1353.3 348.004C1353.3 364.355 1342.5 381.79 1311.18 381.79" fill="#e30613" fill-rule="nonzero" opacity="1" stroke="none" vectornator:layerName="path"/>
<path d="M1435.85 313.913C1435.85 295.4 1429.68 287.533 1416.72 287.533C1403.76 287.533 1397.75 295.4 1397.75 313.913L1397.75 332.269C1397.75 350.782 1403.76 358.649 1416.72 358.649C1429.68 358.649 1435.85 350.782 1435.85 332.269L1435.85 313.913ZM1416.72 381.79C1391.27 381.79 1371.06 368.061 1371.06 332.269L1371.06 313.913C1371.06 278.121 1391.27 264.392 1416.72 264.392C1442.18 264.392 1462.38 278.121 1462.38 313.913L1462.38 332.269C1462.38 368.061 1442.18 381.79 1416.72 381.79" fill="#e30613" fill-rule="nonzero" opacity="1" stroke="none" vectornator:layerName="path"/>
<path d="M1550.5 379.168C1547.26 380.245 1538.32 381.79 1527.51 381.79C1504.07 381.79 1481.86 369.45 1481.86 332.73L1481.86 313.296C1481.86 276.582 1504.07 264.393 1527.51 264.393C1538.32 264.393 1547.26 265.938 1550.5 267.015C1552.66 267.632 1553.89 268.248 1553.89 270.409L1553.89 285.372C1553.89 287.228 1552.97 288.461 1550.97 288.461L1550.5 288.461C1544.64 287.994 1536.15 287.228 1527.67 287.228C1517.02 287.228 1508.54 292.778 1508.54 313.296L1508.54 332.73C1508.54 353.249 1517.02 358.805 1527.67 358.805C1536.15 358.805 1544.64 358.033 1550.5 357.572L1550.97 357.572C1552.97 357.572 1553.89 358.805 1553.89 360.655L1553.89 375.617C1553.89 377.778 1552.66 378.551 1550.5 379.168" fill="#e30613" fill-rule="nonzero" opacity="1" stroke="none" vectornator:layerName="path"/>
<path d="M1597.57 380.401L1576.9 380.401C1575.2 380.401 1574.13 379.011 1574.13 377.317L1574.13 268.714C1574.13 267.014 1575.2 265.781 1576.9 265.781L1597.57 265.781C1599.26 265.781 1600.51 267.014 1600.51 268.714L1600.51 377.317C1600.51 379.011 1599.26 380.401 1597.57 380.401" fill="#e30613" fill-rule="nonzero" opacity="1" stroke="none" vectornator:layerName="path"/>
<path d="M1692.15 379.784C1686.74 380.556 1678.88 381.79 1662.21 381.79C1642.32 381.79 1624.73 376.701 1624.73 348.621L1624.73 297.406C1624.73 269.332 1642.47 264.392 1662.37 264.392C1679.03 264.392 1686.74 265.626 1692.15 266.398C1694.31 266.71 1695.23 267.481 1695.23 269.487L1695.23 283.833C1695.23 285.527 1693.84 286.916 1692.15 286.916L1660.83 286.916C1653.58 286.916 1650.95 289.383 1650.95 297.406L1650.95 311.446L1690.91 311.446C1692.61 311.446 1694 312.835 1694 314.529L1694 329.186C1694 330.881 1692.61 332.269 1690.91 332.269L1650.95 332.269L1650.95 348.621C1650.95 356.643 1653.58 359.11 1660.83 359.11L1692.15 359.11C1693.84 359.11 1695.23 360.5 1695.23 362.2L1695.23 376.545C1695.23 378.551 1694.31 379.472 1692.15 379.784" fill="#e30613" fill-rule="nonzero" opacity="1" stroke="none" vectornator:layerName="path"/>
<path d="M1790.43 287.533L1765.44 287.533L1765.44 377.317C1765.44 379.012 1764.05 380.401 1762.36 380.401L1742.15 380.401C1740.45 380.401 1739.06 379.012 1739.06 377.317L1739.06 287.533L1713.91 287.533C1712.22 287.533 1710.83 286.3 1710.83 284.605L1710.83 268.715C1710.83 267.014 1712.22 265.781 1713.91 265.781L1790.43 265.781C1792.13 265.781 1793.67 267.014 1793.67 268.715L1793.67 284.605C1793.67 286.3 1792.13 287.533 1790.43 287.533" fill="#e30613" fill-rule="nonzero" opacity="1" stroke="none" vectornator:layerName="path"/>
<path d="M1897.05 269.177L1873.76 322.553C1870.67 329.648 1867.43 332.887 1863.73 334.431L1863.73 377.318C1863.73 379.012 1862.34 380.402 1860.64 380.402L1840.44 380.402C1838.74 380.402 1837.35 379.012 1837.35 377.318L1837.35 334.431C1833.65 332.887 1830.25 329.648 1827.17 322.553L1803.87 269.177C1803.72 268.865 1803.72 268.405 1803.72 268.099C1803.72 266.865 1804.65 265.781 1806.19 265.781L1828.4 265.781C1829.94 265.781 1831.03 267.015 1831.49 268.405L1848.15 311.907C1848.92 313.913 1849.38 314.225 1850.46 314.225C1851.54 314.225 1852 313.913 1852.78 311.907L1869.43 268.405C1869.9 267.015 1870.98 265.781 1872.52 265.781L1894.74 265.781C1896.28 265.781 1897.2 266.865 1897.2 268.099C1897.2 268.405 1897.2 268.865 1897.05 269.177" fill="#e30613" fill-rule="nonzero" opacity="1" stroke="none" vectornator:layerName="path"/>
<path d="M502.208 211.878L475.266 165.213L384.583 165.213C381.732 174.868 375.483 182.974 366.742 188.045C360.552 191.643 353.784 193.351 347.095 193.351C333.543 193.351 320.347 186.344 313.064 173.813L313.064 173.806C311.474 171.069 310.357 168.17 309.475 165.213L221.078 165.213L189.798 219.39L347.022 219.39C350.997 219.39 354.667 221.511 356.65 224.949C358.641 228.388 358.641 232.63 356.65 236.068L312.528 312.491C310.545 315.93 306.875 318.051 302.9 318.051L229.397 318.051C226.545 327.708 220.297 335.813 211.555 340.885C205.365 344.482 198.597 346.19 191.908 346.19C178.356 346.19 165.16 339.184 157.877 326.652L157.877 326.646C156.287 323.908 155.169 321.008 154.288 318.051L128.97 318.051L168.609 386.706L334.566 386.706C337.418 377.047 343.667 368.94 352.41 363.867C371.138 352.986 395.215 359.386 406.088 378.099C411.358 387.177 412.777 397.753 410.084 407.888C409.87 408.692 409.485 409.412 409.225 410.194L457.585 326.432L502.208 249.144C503.873 246.261 505.121 243.211 505.952 240.077C506.785 236.944 507.201 233.727 507.201 230.511C507.201 224.077 505.536 217.644 502.208 211.878" fill="#e30613" fill-rule="nonzero" opacity="1" stroke="none" vectornator:layerName="path"/>
<path d="M401.377 423.788C398.633 426.872 395.521 429.646 391.849 431.776C385.659 435.374 378.891 437.082 372.202 437.082C358.65 437.082 345.454 430.075 338.171 417.544L338.171 417.537C336.581 414.801 335.463 411.901 334.581 408.944L164.91 408.944C159.256 408.944 153.993 405.896 151.177 400.996L57.3232 238.435C54.4852 233.542 54.4932 227.454 57.3452 222.553L133.762 90.19C131.691 88.014 129.795 85.616 128.221 82.907L128.221 82.9C122.951 73.83 121.532 63.253 124.225 53.119C126.91 42.976 133.389 34.492 142.46 29.229C161.187 18.35 185.264 24.749 196.137 43.462C197.732 46.207 198.851 49.114 199.733 52.081L409.95 52.081L396.63 29.011C393.302 23.246 388.562 18.588 382.99 15.371C377.418 12.154 371.015 10.379 364.357 10.379L153.201 10.379C141.551 10.379 130.676 15.816 123.68 24.9C122.681 26.197 121.761 27.569 120.929 29.011L68.1392 120.444L15.3502 211.878C14.2382 213.806 13.3802 215.825 12.6402 217.877C11.1982 221.869 10.4102 226.033 10.3762 230.218C10.3762 230.315 10.3582 230.413 10.3582 230.511C10.3582 235.336 11.2942 240.161 13.1662 244.705C13.7892 246.219 14.5192 247.702 15.3502 249.143L37.6622 287.788L120.929 432.01C123.425 436.333 126.715 440.035 130.555 442.973C136.955 447.868 144.879 450.642 153.201 450.642L364.357 450.642C372.012 450.642 379.292 448.231 385.397 444.044C387.088 442.885 388.705 441.619 390.191 440.188C390.337 440.046 390.506 439.93 390.65 439.785C392.18 438.265 393.529 436.554 394.788 434.763C395.421 433.861 396.073 432.976 396.63 432.01L401.377 423.788Z" fill="#000000" fill-rule="nonzero" opacity="1" stroke="none" vectornator:layerName="path"/>
<path d="M422.788 74.3192L199.736 74.3192C196.882 83.9682 190.636 92.0692 181.898 97.1392C175.708 100.737 168.94 102.445 162.251 102.445C159.129 102.445 156.037 102.032 153.02 101.306L78.4253 230.508L116.129 295.812L154.273 295.812C157.124 286.154 163.374 278.048 172.116 272.974C190.844 262.094 214.921 268.494 225.794 287.207C227.386 289.949 228.505 292.851 229.386 295.812L296.479 295.812L327.767 241.628L170.535 241.628C166.56 241.628 162.89 239.506 160.907 236.068C158.916 232.63 158.916 228.387 160.907 224.949L205.029 148.534C207.012 145.095 210.682 142.974 214.657 142.974L309.459 142.974C312.31 133.315 318.56 125.208 327.303 120.134C346.031 109.255 370.108 115.654 380.981 134.367C382.573 137.109 383.692 140.012 384.573 142.974L462.427 142.974L422.788 74.3192Z" fill="#e30613" fill-rule="nonzero" opacity="1" stroke="none" vectornator:layerName="path"/>
<path d="M505.952 240.077C505.12 243.211 503.873 246.261 502.208 249.143L457.585 326.431L409.224 410.195C409.224 410.194 409.225 410.194 409.225 410.194C409.485 409.412 409.87 408.692 410.084 407.888C412.777 397.753 411.358 387.177 406.088 378.098C395.215 359.386 371.138 352.986 352.41 363.867C343.667 368.939 337.418 377.047 334.566 386.706L168.609 386.706L128.97 318.051L154.287 318.051C155.169 321.008 156.287 323.908 157.877 326.645L157.877 326.652C165.16 339.183 178.356 346.19 191.908 346.19C198.597 346.19 205.365 344.482 211.555 340.885C220.297 335.812 226.545 327.708 229.397 318.051L302.9 318.051C306.875 318.051 310.545 315.93 312.528 312.491L356.65 236.068C358.641 232.63 358.641 228.388 356.65 224.949C354.667 221.511 350.996 219.39 347.022 219.39L189.798 219.39L221.077 165.213L309.474 165.213C310.357 168.17 311.474 171.069 313.064 173.806L313.064 173.812C320.347 186.344 333.543 193.35 347.095 193.35C353.784 193.35 360.552 191.642 366.742 188.045C375.483 182.973 381.732 174.868 384.583 165.213L475.266 165.213L502.208 211.878C505.536 217.643 507.201 224.077 507.201 230.511C507.201 233.726 506.785 236.944 505.952 240.077M354.086 393.034C355.364 388.218 358.442 384.186 362.759 381.68C367.059 379.179 372.074 378.481 376.915 379.783C381.731 381.06 385.77 384.139 388.277 388.447C393.443 397.35 390.404 408.8 381.501 413.966C372.63 419.132 361.164 416.108 355.982 407.189C353.483 402.881 352.808 397.85 354.086 393.034M170.433 389.877L170.448 389.898L170.433 389.877ZM76.5724 227.302L76.5794 227.316L76.5724 227.302ZM76.6004 233.673L76.5794 233.709L76.6004 233.673ZM396.63 432.011C396.073 432.975 395.421 433.861 394.787 434.763C393.529 436.554 392.18 438.264 390.65 439.785C390.506 439.93 390.337 440.046 390.191 440.188C388.705 441.619 387.088 442.885 385.397 444.044C379.292 448.232 372.012 450.642 364.357 450.642L153.201 450.642C144.879 450.642 136.954 447.868 130.555 442.973C126.715 440.035 123.425 436.334 120.928 432.011L37.6614 287.788L15.3504 249.143C14.5184 247.702 13.7894 246.219 13.1654 244.705C11.2934 240.16 10.3574 235.336 10.3584 230.511C10.3584 230.413 10.3764 230.315 10.3764 230.218C10.4104 226.032 11.1984 221.869 12.6404 217.877C13.3804 215.825 14.2384 213.806 15.3504 211.878L68.1394 120.444L120.928 29.0111C121.76 27.5691 122.681 26.1971 123.68 24.9001C130.676 15.8161 141.551 10.3791 153.201 10.3791L364.357 10.3791C371.015 10.3791 377.417 12.1541 382.99 15.3711C388.562 18.5881 393.302 23.2461 396.63 29.0111L409.95 52.0811L199.733 52.0811C198.851 49.1141 197.731 46.2071 196.137 43.4621C185.264 24.7491 161.187 18.3491 142.459 29.2291C133.389 34.4921 126.91 42.9761 124.224 53.1191C121.532 63.2531 122.951 73.8301 128.221 82.9001L128.221 82.9071C129.795 85.6161 131.691 88.0141 133.762 90.1901L57.3454 222.553C54.4934 227.454 54.4854 233.542 57.3234 238.435L151.177 400.996C153.993 405.896 159.256 408.944 164.91 408.944L334.58 408.944C335.463 411.901 336.581 414.801 338.171 417.537L338.171 417.544C345.453 430.075 358.65 437.082 372.202 437.082C378.89 437.082 385.659 435.374 391.848 431.776C395.52 429.646 398.633 426.872 401.377 423.788C401.377 423.788 401.378 423.788 401.378 423.787L396.63 432.011ZM144.311 58.4431C145.576 53.6741 148.625 49.6811 152.899 47.1981C157.159 44.7231 162.124 44.0311 166.918 45.3201C171.687 46.5851 175.687 49.6351 178.17 53.9011C183.286 62.7181 180.277 74.0561 171.46 79.1721C162.675 84.2871 151.321 81.2941 146.189 72.4621C143.713 68.1941 143.046 63.2121 144.311 58.4431M207.842 297.638C212.962 306.462 209.951 317.812 201.125 322.932C192.331 328.054 180.966 325.056 175.83 316.215C173.352 311.945 172.683 306.958 173.951 302.184C175.216 297.409 178.268 293.414 182.547 290.929C186.81 288.45 191.781 287.759 196.579 289.049C201.353 290.315 205.357 293.367 207.842 297.638M384.573 142.974C383.692 140.013 382.573 137.109 380.981 134.367C370.108 115.654 346.031 109.255 327.303 120.135C318.56 125.208 312.31 133.315 309.459 142.974L214.657 142.974C210.682 142.974 207.012 145.096 205.029 148.534L160.907 224.949C158.916 228.388 158.916 232.63 160.907 236.068C162.89 239.507 166.56 241.628 170.535 241.628L327.766 241.628L296.479 295.812L229.386 295.812C228.505 292.851 227.386 289.949 225.794 287.207C214.921 268.494 190.844 262.095 172.116 272.974C163.374 278.048 157.124 286.154 154.273 295.812L116.129 295.812L78.4254 230.509L153.02 101.306C156.036 102.032 159.129 102.445 162.251 102.445C168.94 102.445 175.708 100.737 181.898 97.1401C190.636 92.0691 196.882 83.9691 199.736 74.3191L422.788 74.3191L462.427 142.974L384.573 142.974ZM511.195 206.688L405.617 23.8221C397.134 9.1281 381.324 0.000102661 364.357 0.000102661L153.201 0.000102661C136.234 0.000102661 120.424 9.1281 111.941 23.8211L6.36339 206.689C-2.12061 221.383-2.12061 239.639 6.36339 254.333L111.941 437.199C120.425 451.893 136.235 461.021 153.201 461.021L364.357 461.021C381.323 461.021 397.133 451.893 405.617 437.2L511.195 254.332C519.679 239.639 519.679 221.383 511.195 206.688" fill="#ffffff" fill-rule="nonzero" opacity="1" stroke="none" vectornator:layerName="path"/>
<path d="M196.579 289.049C191.781 287.759 186.81 288.45 182.547 290.929C178.268 293.414 175.216 297.409 173.951 302.185C172.683 306.958 173.352 311.945 175.83 316.215C180.966 325.057 192.331 328.054 201.125 322.933C209.951 317.813 212.962 306.462 207.842 297.638C205.357 293.367 201.353 290.316 196.579 289.049" fill="#e30613" fill-rule="nonzero" opacity="1" stroke="none" vectornator:layerName="path"/>
<path d="M351.766 136.209C346.968 134.919 341.997 135.61 337.734 138.089C333.455 140.574 330.403 144.569 329.138 149.345C327.87 154.118 328.539 159.105 331.017 163.375C336.153 172.217 347.518 175.213 356.312 170.093C365.137 164.972 368.149 153.622 363.029 144.798C360.544 140.526 356.54 137.475 351.766 136.209" fill="#e30613" fill-rule="nonzero" opacity="1" stroke="none" vectornator:layerName="path"/>
<path d="M144.311 58.4433C145.576 53.6733 148.625 49.6803 152.899 47.1983C157.159 44.7223 162.124 44.0313 166.918 45.3203C171.687 46.5853 175.687 49.6343 178.17 53.9013C183.286 62.7173 180.277 74.0563 171.46 79.1723C162.675 84.2873 151.321 81.2943 146.189 72.4623C143.713 68.1943 143.046 63.2123 144.311 58.4433" fill="#000000" fill-rule="nonzero" opacity="1" stroke="none" vectornator:layerName="path"/>
<path d="M354.086 393.034C355.364 388.218 358.442 384.186 362.759 381.68C367.06 379.179 372.074 378.481 376.915 379.783C381.731 381.06 385.771 384.139 388.277 388.447C393.443 397.35 390.404 408.8 381.501 413.966C372.63 419.132 361.164 416.108 355.982 407.189C353.483 402.881 352.808 397.85 354.086 393.034" fill="#000000" fill-rule="nonzero" opacity="1" stroke="none" vectornator:layerName="path"/>
</g>
</g>
<g opacity="1">
<use fill="#000000" fill-rule="nonzero" stroke="none" xlink:href="#Fill"/>
<mask height="433.171" id="StrokeMask" maskUnits="userSpaceOnUse" width="111.698" x="871.856" y="983.058">
<rect fill="#ffffff" height="433.171" stroke="none" width="111.698" x="871.856" y="983.058"/>
<use fill="#000000" fill-rule="evenodd" stroke="none" xlink:href="#Fill"/>
</mask>
<use fill="none" mask="url(#StrokeMask)" stroke="#000000" stroke-linecap="butt" stroke-linejoin="bevel" stroke-width="5.25688" xlink:href="#Fill"/>
</g>
<g opacity="1">
<use fill="#000000" fill-rule="nonzero" stroke="none" xlink:href="#Fill_2"/>
<mask height="9.55752" id="StrokeMask_2" maskUnits="userSpaceOnUse" width="14.9333" x="519.203" y="-35.12">
<rect fill="#ffffff" height="9.55752" stroke="none" width="14.9333" x="519.203" y="-35.12"/>
<use fill="#000000" fill-rule="evenodd" stroke="none" xlink:href="#Fill_2"/>
</mask>
<use fill="none" mask="url(#StrokeMask_2)" stroke="#000000" stroke-linecap="butt" stroke-linejoin="bevel" stroke-width="5.25688" xlink:href="#Fill_2"/>
</g>
</g>
<g clip-path="url(#ArtboardFrame)" id="Untitled-copy" vectornator:layerName="Untitled copy">
<g opacity="1" vectornator:layerName="Group">
<path d="M502.209 211.877L475.267 165.212L384.584 165.212C381.733 174.867 375.484 182.973 366.743 188.044C360.553 191.642 353.785 193.35 347.096 193.35C333.544 193.35 320.348 186.343 313.065 173.812L313.065 173.805C311.475 171.068 310.358 168.169 309.476 165.212L221.079 165.212L189.799 219.389L347.023 219.389C350.998 219.389 354.668 221.51 356.651 224.948C358.642 228.387 358.642 232.629 356.651 236.067L312.529 312.49C310.546 315.929 306.876 318.05 302.901 318.05L229.398 318.05C226.546 327.707 220.298 335.812 211.556 340.884C205.366 344.481 198.598 346.189 191.909 346.189C178.357 346.189 165.161 339.183 157.878 326.651L157.878 326.645C156.288 323.907 155.17 321.007 154.289 318.05L128.971 318.05L168.61 386.705L334.567 386.705C337.419 377.046 343.668 368.939 352.411 363.866C371.139 352.985 395.216 359.385 406.089 378.098C411.359 387.176 412.778 397.752 410.085 407.887C409.871 408.691 409.486 409.411 409.226 410.193L457.586 326.431L502.209 249.143C503.874 246.26 505.122 243.21 505.953 240.076C506.786 236.943 507.202 233.726 507.202 230.51C507.202 224.076 505.537 217.643 502.209 211.877" fill="#e30613" fill-rule="nonzero" opacity="1" stroke="none" vectornator:layerName="path"/>
<path d="M401.378 423.787C398.634 426.871 395.522 429.645 391.85 431.775C385.66 435.373 378.892 437.081 372.203 437.081C358.651 437.081 345.455 430.074 338.172 417.543L338.172 417.536C336.582 414.8 335.464 411.9 334.582 408.943L164.911 408.943C159.257 408.943 153.994 405.895 151.178 400.995L57.3238 238.434C54.4858 233.541 54.4938 227.453 57.3458 222.552L133.763 90.1894C131.692 88.0134 129.796 85.6154 128.222 82.9064L128.222 82.8994C122.952 73.8294 121.533 63.2524 124.226 53.1184C126.911 42.9754 133.39 34.4914 142.461 29.2284C161.188 18.3494 185.265 24.7484 196.138 43.4614C197.733 46.2064 198.852 49.1134 199.734 52.0804L409.951 52.0804L396.631 29.0104C393.303 23.2454 388.563 18.5874 382.991 15.3704C377.419 12.1534 371.016 10.3784 364.358 10.3784L153.202 10.3784C141.552 10.3784 130.677 15.8154 123.681 24.8994C122.682 26.1964 121.762 27.5684 120.93 29.0104L68.1398 120.443L15.3508 211.877C14.2388 213.805 13.3808 215.824 12.6408 217.876C11.1988 221.868 10.4108 226.032 10.3768 230.217C10.3768 230.314 10.3588 230.412 10.3588 230.51C10.3588 235.335 11.2948 240.16 13.1668 244.704C13.7898 246.218 14.5198 247.701 15.3508 249.142L37.6628 287.787L120.93 432.009C123.426 436.332 126.716 440.034 130.556 442.972C136.956 447.867 144.88 450.641 153.202 450.641L364.358 450.641C372.013 450.641 379.293 448.23 385.398 444.043C387.089 442.884 388.706 441.618 390.192 440.187C390.338 440.045 390.507 439.929 390.651 439.784C392.181 438.264 393.53 436.553 394.789 434.762C395.422 433.86 396.074 432.975 396.631 432.009L401.378 423.787Z" fill="#000000" fill-rule="nonzero" opacity="1" stroke="none" vectornator:layerName="path"/>
<path d="M422.789 74.3186L199.737 74.3186C196.883 83.9676 190.637 92.0686 181.899 97.1386C175.709 100.737 168.941 102.445 162.252 102.445C159.13 102.445 156.038 102.032 153.021 101.306L78.4259 230.508L116.13 295.812L154.274 295.812C157.125 286.154 163.375 278.048 172.117 272.974C190.845 262.094 214.922 268.494 225.795 287.207C227.387 289.949 228.506 292.851 229.387 295.812L296.48 295.812L327.768 241.628L170.536 241.628C166.561 241.628 162.891 239.506 160.908 236.068C158.917 232.63 158.917 228.387 160.908 224.949L205.03 148.534C207.013 145.095 210.683 142.974 214.658 142.974L309.46 142.974C312.311 133.315 318.561 125.208 327.304 120.134C346.032 109.255 370.109 115.654 380.982 134.367C382.574 137.109 383.693 140.012 384.574 142.974L462.428 142.974L422.789 74.3186Z" fill="#e30613" fill-rule="nonzero" opacity="1" stroke="none" vectornator:layerName="path"/>
<path d="M505.953 240.077C505.121 243.211 503.874 246.261 502.209 249.143L457.586 326.43L409.225 410.194C409.225 410.193 409.226 410.193 409.226 410.193C409.486 409.411 409.871 408.691 410.085 407.888C412.778 397.752 411.359 387.176 406.089 378.097C395.216 359.385 371.139 352.986 352.411 363.866C343.668 368.938 337.419 377.047 334.567 386.706L168.61 386.706L128.971 318.05L154.288 318.05C155.17 321.007 156.288 323.908 157.878 326.644L157.878 326.651C165.161 339.183 178.357 346.189 191.909 346.189C198.598 346.189 205.366 344.481 211.556 340.885C220.298 335.811 226.546 327.707 229.398 318.05L302.901 318.05C306.876 318.05 310.546 315.929 312.529 312.49L356.651 236.068C358.642 232.63 358.642 228.388 356.651 224.949C354.668 221.511 350.997 219.39 347.023 219.39L189.799 219.39L221.078 165.213L309.475 165.213C310.358 168.17 311.475 171.069 313.065 173.806L313.065 173.812C320.348 186.344 333.544 193.35 347.096 193.35C353.785 193.35 360.553 191.642 366.743 188.045C375.484 182.973 381.733 174.868 384.584 165.213L475.267 165.213L502.209 211.878C505.537 217.643 507.202 224.077 507.202 230.511C507.202 233.726 506.786 236.944 505.953 240.077M354.087 393.034C355.365 388.217 358.443 384.186 362.76 381.679C367.06 379.178 372.075 378.48 376.916 379.782C381.732 381.059 385.771 384.138 388.278 388.447C393.444 397.35 390.405 408.799 381.502 413.966C372.631 419.131 361.165 416.107 355.983 407.188C353.484 402.88 352.809 397.85 354.087 393.034M170.434 389.876L170.449 389.897L170.434 389.876ZM76.573 227.302L76.58 227.316L76.573 227.302ZM76.601 233.673L76.58 233.709L76.601 233.673ZM396.631 432.01C396.074 432.975 395.422 433.861 394.788 434.762C393.53 436.553 392.181 438.263 390.651 439.784C390.507 439.929 390.338 440.045 390.192 440.188C388.706 441.619 387.089 442.884 385.398 444.043C379.293 448.231 372.013 450.641 364.358 450.641L153.202 450.641C144.88 450.641 136.955 447.867 130.556 442.972C126.716 440.034 123.426 436.333 120.929 432.01L37.662 287.787L15.351 249.143C14.519 247.702 13.79 246.219 13.166 244.705C11.294 240.16 10.358 235.336 10.359 230.511C10.359 230.413 10.377 230.315 10.377 230.218C10.411 226.032 11.199 221.869 12.641 217.877C13.381 215.825 14.239 213.806 15.351 211.878L68.14 120.444L120.929 29.0105C121.761 27.5685 122.682 26.1965 123.681 24.8995C130.677 15.8155 141.552 10.3785 153.202 10.3785L364.358 10.3785C371.016 10.3785 377.418 12.1535 382.991 15.3705C388.563 18.5875 393.303 23.2455 396.631 29.0105L409.951 52.0805L199.734 52.0805C198.852 49.1135 197.732 46.2065 196.138 43.4615C185.265 24.7485 161.188 18.3485 142.46 29.2285C133.39 34.4915 126.911 42.9755 124.225 53.1185C121.533 63.2525 122.952 73.8295 128.222 82.8995L128.222 82.9065C129.796 85.6155 131.692 88.0135 133.763 90.1895L57.346 222.553C54.494 227.454 54.486 233.542 57.324 238.435L151.178 400.995C153.994 405.895 159.257 408.943 164.911 408.943L334.581 408.943C335.464 411.9 336.582 414.8 338.172 417.537L338.172 417.543C345.454 430.074 358.651 437.082 372.203 437.082C378.891 437.082 385.66 435.373 391.849 431.775C395.521 429.645 398.634 426.871 401.378 423.787C401.378 423.787 401.379 423.787 401.379 423.786L396.631 432.01ZM144.312 58.4425C145.577 53.6735 148.626 49.6805 152.9 47.1975C157.16 44.7225 162.125 44.0305 166.919 45.3195C171.688 46.5845 175.688 49.6345 178.171 53.9005C183.287 62.7175 180.278 74.0555 171.461 79.1715C162.676 84.2865 151.322 81.2935 146.19 72.4615C143.714 68.1935 143.047 63.2115 144.312 58.4425M207.843 297.637C212.963 306.462 209.952 317.812 201.126 322.932C192.332 328.053 180.967 325.055 175.831 316.214C173.353 311.944 172.684 306.957 173.952 302.183C175.217 297.409 178.269 293.413 182.548 290.928C186.811 288.449 191.782 287.759 196.58 289.048C201.354 290.314 205.358 293.366 207.843 297.637M384.574 142.974C383.693 140.013 382.574 137.109 380.982 134.367C370.109 115.654 346.032 109.255 327.304 120.135C318.561 125.208 312.311 133.315 309.46 142.974L214.658 142.974C210.683 142.974 207.013 145.096 205.03 148.534L160.908 224.949C158.917 228.388 158.917 232.63 160.908 236.068C162.891 239.507 166.561 241.628 170.536 241.628L327.767 241.628L296.48 295.812L229.387 295.812C228.506 292.851 227.387 289.948 225.795 287.207C214.922 268.494 190.845 262.095 172.117 272.974C163.375 278.048 157.125 286.154 154.274 295.812L116.13 295.812L78.426 230.509L153.021 101.306C156.037 102.032 159.13 102.445 162.252 102.445C168.941 102.445 175.709 100.737 181.899 97.1395C190.637 92.0685 196.883 83.9685 199.737 74.3185L422.789 74.3185L462.428 142.974L384.574 142.974ZM511.196 206.688L405.618 23.8215C397.135 9.1275 381.325-0.0005 364.358-0.0005L153.202-0.0005C136.235-0.0005 120.425 9.1275 111.942 23.8205L6.364 206.689C-2.12 221.383-2.12 239.639 6.364 254.333L111.942 437.198C120.426 451.893 136.236 461.02 153.202 461.02L364.358 461.02C381.324 461.02 397.134 451.893 405.618 437.199L511.196 254.332C519.68 239.639 519.68 221.383 511.196 206.688" fill="#ffffff" fill-rule="nonzero" opacity="0" stroke="none" vectornator:layerName="path"/>
<path d="M196.58 289.048C191.782 287.758 186.811 288.449 182.548 290.928C178.269 293.413 175.217 297.408 173.952 302.184C172.684 306.957 173.353 311.944 175.831 316.214C180.967 325.056 192.332 328.053 201.126 322.932C209.952 317.812 212.963 306.461 207.843 297.637C205.358 293.366 201.354 290.315 196.58 289.048" fill="#e30613" fill-rule="nonzero" opacity="1" stroke="none" vectornator:layerName="path"/>
<path d="M351.767 136.208C346.969 134.918 341.998 135.609 337.735 138.088C333.456 140.573 330.404 144.568 329.139 149.344C327.871 154.117 328.54 159.104 331.018 163.374C336.154 172.216 347.519 175.212 356.313 170.092C365.138 164.971 368.15 153.621 363.03 144.797C360.545 140.525 356.541 137.474 351.767 136.208" fill="#e30613" fill-rule="nonzero" opacity="1" stroke="none" vectornator:layerName="path"/>
<path d="M144.312 58.4427C145.577 53.6727 148.626 49.6797 152.9 47.1977C157.16 44.7217 162.125 44.0307 166.919 45.3197C171.688 46.5847 175.688 49.6337 178.171 53.9007C183.287 62.7167 180.278 74.0557 171.461 79.1717C162.676 84.2867 151.322 81.2937 146.19 72.4617C143.714 68.1937 143.047 63.2117 144.312 58.4427" fill="#000000" fill-rule="nonzero" opacity="1" stroke="none" vectornator:layerName="path"/>
<path d="M354.087 393.033C355.365 388.217 358.443 384.185 362.76 381.679C367.061 379.178 372.075 378.48 376.916 379.782C381.732 381.059 385.772 384.138 388.278 388.446C393.444 397.349 390.405 408.799 381.502 413.965C372.631 419.131 361.165 416.107 355.983 407.188C353.484 402.88 352.809 397.849 354.087 393.033" fill="#000000" fill-rule="nonzero" opacity="1" stroke="none" vectornator:layerName="path"/>
</g>
</g>
<g clip-path="url(#ArtboardFrame)" id="Untitled-copy-copy" vectornator:layerName="Untitled copy copy" visibility="hidden">
<g opacity="1" vectornator:layerName="Group">
<path d="M502.209 211.877L475.267 165.212L384.584 165.212C381.733 174.867 375.484 182.973 366.743 188.044C360.553 191.642 353.785 193.35 347.096 193.35C333.544 193.35 320.348 186.343 313.065 173.812L313.065 173.805C311.475 171.068 310.358 168.169 309.476 165.212L221.079 165.212L189.799 219.389L347.023 219.389C350.998 219.389 354.668 221.51 356.651 224.948C358.642 228.387 358.642 232.629 356.651 236.067L312.529 312.49C310.546 315.929 306.876 318.05 302.901 318.05L229.398 318.05C226.546 327.707 220.298 335.812 211.556 340.884C205.366 344.481 198.598 346.189 191.909 346.189C178.357 346.189 165.161 339.183 157.878 326.651L157.878 326.645C156.288 323.907 155.17 321.007 154.289 318.05L128.971 318.05L168.61 386.705L334.567 386.705C337.419 377.046 343.668 368.939 352.411 363.866C371.139 352.985 395.216 359.385 406.089 378.098C411.359 387.176 412.778 397.752 410.085 407.887C409.871 408.691 409.486 409.411 409.226 410.193L457.586 326.431L502.209 249.143C503.874 246.26 505.122 243.21 505.953 240.076C506.786 236.943 507.202 233.726 507.202 230.51C507.202 224.076 505.537 217.643 502.209 211.877" fill="#000000" fill-rule="nonzero" opacity="1" stroke="none" vectornator:layerName="path"/>
<path d="M401.378 423.787C398.634 426.871 395.522 429.645 391.85 431.775C385.66 435.373 378.892 437.081 372.203 437.081C358.651 437.081 345.455 430.074 338.172 417.543L338.172 417.536C336.582 414.8 335.464 411.9 334.582 408.943L164.911 408.943C159.257 408.943 153.994 405.895 151.178 400.995L57.3238 238.434C54.4858 233.541 54.4938 227.453 57.3458 222.552L133.763 90.1894C131.692 88.0134 129.796 85.6154 128.222 82.9064L128.222 82.8994C122.952 73.8294 121.533 63.2524 124.226 53.1184C126.911 42.9754 133.39 34.4914 142.461 29.2284C161.188 18.3494 185.265 24.7484 196.138 43.4614C197.733 46.2064 198.852 49.1134 199.734 52.0804L409.951 52.0804L396.631 29.0104C393.303 23.2454 388.563 18.5874 382.991 15.3704C377.419 12.1534 371.016 10.3784 364.358 10.3784L153.202 10.3784C141.552 10.3784 130.677 15.8154 123.681 24.8994C122.682 26.1964 121.762 27.5684 120.93 29.0104L68.1398 120.443L15.3508 211.877C14.2388 213.805 13.3808 215.824 12.6408 217.876C11.1988 221.868 10.4108 226.032 10.3768 230.217C10.3768 230.314 10.3588 230.412 10.3588 230.51C10.3588 235.335 11.2948 240.16 13.1668 244.704C13.7898 246.218 14.5198 247.701 15.3508 249.142L37.6628 287.787L120.93 432.009C123.426 436.332 126.716 440.034 130.556 442.972C136.956 447.867 144.88 450.641 153.202 450.641L364.358 450.641C372.013 450.641 379.293 448.23 385.398 444.043C387.089 442.884 388.706 441.618 390.192 440.187C390.338 440.045 390.507 439.929 390.651 439.784C392.181 438.264 393.53 436.553 394.789 434.762C395.422 433.86 396.074 432.975 396.631 432.009L401.378 423.787Z" fill="#000000" fill-rule="nonzero" opacity="1" stroke="none" vectornator:layerName="path"/>
<path d="M422.789 74.3186L199.737 74.3186C196.883 83.9676 190.637 92.0686 181.899 97.1386C175.709 100.737 168.941 102.445 162.252 102.445C159.13 102.445 156.038 102.032 153.021 101.306L78.4259 230.508L116.13 295.812L154.274 295.812C157.125 286.154 163.375 278.048 172.117 272.974C190.845 262.094 214.922 268.494 225.795 287.207C227.387 289.949 228.506 292.851 229.387 295.812L296.48 295.812L327.768 241.628L170.536 241.628C166.561 241.628 162.891 239.506 160.908 236.068C158.917 232.63 158.917 228.387 160.908 224.949L205.03 148.534C207.013 145.095 210.683 142.974 214.658 142.974L309.46 142.974C312.311 133.315 318.561 125.208 327.304 120.134C346.032 109.255 370.109 115.654 380.982 134.367C382.574 137.109 383.693 140.012 384.574 142.974L462.428 142.974L422.789 74.3186Z" fill="#000000" fill-rule="nonzero" opacity="1" stroke="none" vectornator:layerName="path"/>
<path d="M505.953 240.077C505.121 243.211 503.874 246.261 502.209 249.143L457.586 326.43L409.225 410.194C409.225 410.193 409.226 410.193 409.226 410.193C409.486 409.411 409.871 408.691 410.085 407.888C412.778 397.752 411.359 387.176 406.089 378.097C395.216 359.385 371.139 352.986 352.411 363.866C343.668 368.938 337.419 377.047 334.567 386.706L168.61 386.706L128.971 318.05L154.288 318.05C155.17 321.007 156.288 323.908 157.878 326.644L157.878 326.651C165.161 339.183 178.357 346.189 191.909 346.189C198.598 346.189 205.366 344.481 211.556 340.885C220.298 335.811 226.546 327.707 229.398 318.05L302.901 318.05C306.876 318.05 310.546 315.929 312.529 312.49L356.651 236.068C358.642 232.63 358.642 228.388 356.651 224.949C354.668 221.511 350.997 219.39 347.023 219.39L189.799 219.39L221.078 165.213L309.475 165.213C310.358 168.17 311.475 171.069 313.065 173.806L313.065 173.812C320.348 186.344 333.544 193.35 347.096 193.35C353.785 193.35 360.553 191.642 366.743 188.045C375.484 182.973 381.733 174.868 384.584 165.213L475.267 165.213L502.209 211.878C505.537 217.643 507.202 224.077 507.202 230.511C507.202 233.726 506.786 236.944 505.953 240.077M354.087 393.034C355.365 388.217 358.443 384.186 362.76 381.679C367.06 379.178 372.075 378.48 376.916 379.782C381.732 381.059 385.771 384.138 388.278 388.447C393.444 397.35 390.405 408.799 381.502 413.966C372.631 419.131 361.165 416.107 355.983 407.188C353.484 402.88 352.809 397.85 354.087 393.034M170.434 389.876L170.449 389.897L170.434 389.876ZM76.573 227.302L76.58 227.316L76.573 227.302ZM76.601 233.673L76.58 233.709L76.601 233.673ZM396.631 432.01C396.074 432.975 395.422 433.861 394.788 434.762C393.53 436.553 392.181 438.263 390.651 439.784C390.507 439.929 390.338 440.045 390.192 440.188C388.706 441.619 387.089 442.884 385.398 444.043C379.293 448.231 372.013 450.641 364.358 450.641L153.202 450.641C144.88 450.641 136.955 447.867 130.556 442.972C126.716 440.034 123.426 436.333 120.929 432.01L37.662 287.787L15.351 249.143C14.519 247.702 13.79 246.219 13.166 244.705C11.294 240.16 10.358 235.336 10.359 230.511C10.359 230.413 10.377 230.315 10.377 230.218C10.411 226.032 11.199 221.869 12.641 217.877C13.381 215.825 14.239 213.806 15.351 211.878L68.14 120.444L120.929 29.0105C121.761 27.5685 122.682 26.1965 123.681 24.8995C130.677 15.8155 141.552 10.3785 153.202 10.3785L364.358 10.3785C371.016 10.3785 377.418 12.1535 382.991 15.3705C388.563 18.5875 393.303 23.2455 396.631 29.0105L409.951 52.0805L199.734 52.0805C198.852 49.1135 197.732 46.2065 196.138 43.4615C185.265 24.7485 161.188 18.3485 142.46 29.2285C133.39 34.4915 126.911 42.9755 124.225 53.1185C121.533 63.2525 122.952 73.8295 128.222 82.8995L128.222 82.9065C129.796 85.6155 131.692 88.0135 133.763 90.1895L57.346 222.553C54.494 227.454 54.486 233.542 57.324 238.435L151.178 400.995C153.994 405.895 159.257 408.943 164.911 408.943L334.581 408.943C335.464 411.9 336.582 414.8 338.172 417.537L338.172 417.543C345.454 430.074 358.651 437.082 372.203 437.082C378.891 437.082 385.66 435.373 391.849 431.775C395.521 429.645 398.634 426.871 401.378 423.787C401.378 423.787 401.379 423.787 401.379 423.786L396.631 432.01ZM144.312 58.4425C145.577 53.6735 148.626 49.6805 152.9 47.1975C157.16 44.7225 162.125 44.0305 166.919 45.3195C171.688 46.5845 175.688 49.6345 178.171 53.9005C183.287 62.7175 180.278 74.0555 171.461 79.1715C162.676 84.2865 151.322 81.2935 146.19 72.4615C143.714 68.1935 143.047 63.2115 144.312 58.4425M207.843 297.637C212.963 306.462 209.952 317.812 201.126 322.932C192.332 328.053 180.967 325.055 175.831 316.214C173.353 311.944 172.684 306.957 173.952 302.183C175.217 297.409 178.269 293.413 182.548 290.928C186.811 288.449 191.782 287.759 196.58 289.048C201.354 290.314 205.358 293.366 207.843 297.637M384.574 142.974C383.693 140.013 382.574 137.109 380.982 134.367C370.109 115.654 346.032 109.255 327.304 120.135C318.561 125.208 312.311 133.315 309.46 142.974L214.658 142.974C210.683 142.974 207.013 145.096 205.03 148.534L160.908 224.949C158.917 228.388 158.917 232.63 160.908 236.068C162.891 239.507 166.561 241.628 170.536 241.628L327.767 241.628L296.48 295.812L229.387 295.812C228.506 292.851 227.387 289.948 225.795 287.207C214.922 268.494 190.845 262.095 172.117 272.974C163.375 278.048 157.125 286.154 154.274 295.812L116.13 295.812L78.426 230.509L153.021 101.306C156.037 102.032 159.13 102.445 162.252 102.445C168.941 102.445 175.709 100.737 181.899 97.1395C190.637 92.0685 196.883 83.9685 199.737 74.3185L422.789 74.3185L462.428 142.974L384.574 142.974ZM511.196 206.688L405.618 23.8215C397.135 9.1275 381.325-0.0005 364.358-0.0005L153.202-0.0005C136.235-0.0005 120.425 9.1275 111.942 23.8205L6.364 206.689C-2.12 221.383-2.12 239.639 6.364 254.333L111.942 437.198C120.426 451.893 136.236 461.02 153.202 461.02L364.358 461.02C381.324 461.02 397.134 451.893 405.618 437.199L511.196 254.332C519.68 239.639 519.68 221.383 511.196 206.688" fill="#000000" fill-rule="nonzero" opacity="1" stroke="none" vectornator:layerName="path"/>
<path d="M196.58 289.048C191.782 287.758 186.811 288.449 182.548 290.928C178.269 293.413 175.217 297.408 173.952 302.184C172.684 306.957 173.353 311.944 175.831 316.214C180.967 325.056 192.332 328.053 201.126 322.932C209.952 317.812 212.963 306.461 207.843 297.637C205.358 293.366 201.354 290.315 196.58 289.048" fill="#000000" fill-rule="nonzero" opacity="1" stroke="none" vectornator:layerName="path"/>
<path d="M351.767 136.208C346.969 134.918 341.998 135.609 337.735 138.088C333.456 140.573 330.404 144.568 329.139 149.344C327.871 154.117 328.54 159.104 331.018 163.374C336.154 172.216 347.519 175.212 356.313 170.092C365.138 164.971 368.15 153.621 363.03 144.797C360.545 140.525 356.541 137.474 351.767 136.208" fill="#000000" fill-rule="nonzero" opacity="1" stroke="none" vectornator:layerName="path"/>
<path d="M144.312 58.4427C145.577 53.6727 148.626 49.6797 152.9 47.1977C157.16 44.7217 162.125 44.0307 166.919 45.3197C171.688 46.5847 175.688 49.6337 178.171 53.9007C183.287 62.7167 180.278 74.0557 171.461 79.1717C162.676 84.2867 151.322 81.2937 146.19 72.4617C143.714 68.1937 143.047 63.2117 144.312 58.4427" fill="#000000" fill-rule="nonzero" opacity="1" stroke="none" vectornator:layerName="path"/>
<path d="M354.087 393.033C355.365 388.217 358.443 384.185 362.76 381.679C367.061 379.178 372.075 378.48 376.916 379.782C381.732 381.059 385.772 384.138 388.278 388.446C393.444 397.349 390.405 408.799 381.502 413.965C372.631 419.131 361.165 416.107 355.983 407.188C353.484 402.88 352.809 397.849 354.087 393.033" fill="#000000" fill-rule="nonzero" opacity="1" stroke="none" vectornator:layerName="path"/>
</g>
</g>
</svg>
